<?xml version="1.0"?>
<svg xmlns="http://www.w3.org/2000/svg" width="400" height="323" viewBox="78 34 255 206" fill="none" role="img" aria-label="Codițe Răsfățate">
  
  <g transform="translate(174,30) scale(0.42)">
    <path d="M60,96 C60,96 22,68 22,42 C22,28 32,20 44,20 C53,20 59,26 60,33 C61,26 67,20 76,20 C88,20 98,28 98,42 C98,68 60,96 60,96 Z" fill="#f060b2"></path>
    <path d="M60,92 C71,105 88,107 96,96 C101,89 100,79 92,77" stroke="#f060b2" stroke-width="11" stroke-linecap="round"></path>
  </g>

  
  <path fill="#7b1951" d="M152.26 158.27Q145.84 158.27 141.09 155.92Q136.33 153.57 133.80 149.25Q131.26 144.93 131.26 139.21L131.26 139.21Q131.26 131.27 134.25 125.11Q137.25 118.96 142.38 115.58Q147.51 112.21 153.78 112.21L153.78 112.21Q159.61 112.21 162.63 115.20Q165.66 118.20 165.66 123.12L165.66 123.12Q165.66 126.41 164.50 128.41Q163.33 130.41 161.17 130.41L161.17 130.41Q159.66 130.41 158.80 129.70Q157.93 129.00 157.93 127.65L157.93 127.65Q157.93 127.17 158.15 125.87L158.15 125.87Q158.47 124.25 158.47 123.28L158.47 123.28Q158.47 118.36 153.24 118.36L153.24 118.36Q149.67 118.36 146.43 120.69Q143.19 123.01 141.19 127.52Q139.20 132.03 139.20 138.24L139.20 138.24Q139.20 144.72 142.81 148.25Q146.43 151.79 153.51 151.79L153.51 151.79Q157.02 151.79 160.61 150.90Q164.20 150.01 168.57 148.17L168.57 148.17Q169.38 147.85 169.92 147.85L169.92 147.85Q170.79 147.85 171.22 148.50Q171.65 149.14 171.65 150.17L171.65 150.17Q171.65 153.46 168.09 155.03L168.09 155.03Q164.25 156.70 160.12 157.49Q155.99 158.27 152.26 158.27L152.26 158.27ZM194.44 141.42Q195.14 141.42 195.52 142.12Q195.90 142.83 195.90 143.91L195.90 143.91Q195.90 146.50 194.33 146.98L194.33 146.98Q191.09 148.12 187.20 148.28L187.20 148.28Q186.18 152.82 183.15 155.54Q180.13 158.27 176.29 158.27L176.29 158.27Q173.05 158.27 170.76 156.70Q168.46 155.14 167.28 152.55Q166.09 149.95 166.09 146.93L166.09 146.93Q166.09 142.83 167.65 139.61Q169.22 136.40 171.97 134.59Q174.73 132.78 178.08 132.78L178.08 132.78Q182.18 132.78 184.69 135.62Q187.20 138.45 187.63 142.61L187.63 142.61Q190.17 142.45 193.68 141.53L193.68 141.53Q194.11 141.42 194.44 141.42L194.44 141.42ZM176.73 152.55Q178.45 152.55 179.72 151.14Q180.99 149.74 181.42 147.09L181.42 147.09Q179.75 145.96 178.86 144.12Q177.97 142.29 177.97 140.23L177.97 140.23Q177.97 139.37 178.13 138.51L178.13 138.51L177.86 138.51Q175.70 138.51 174.27 140.59Q172.84 142.66 172.84 146.44L172.84 146.44Q172.84 149.41 174.00 150.98Q175.16 152.55 176.73 152.55L176.73 152.55ZM221.92 145.96Q222.63 145.96 223.03 146.61Q223.44 147.25 223.44 148.39L223.44 148.39Q223.44 150.55 222.41 151.74L222.41 151.74Q220.20 154.44 217.55 156.35Q214.90 158.27 212.31 158.27L212.31 158.27Q208.21 158.27 206.05 153.46L206.05 153.46Q203.78 156.33 202.08 157.30Q200.38 158.27 198.11 158.27L198.11 158.27Q194.82 158.27 192.68 155.81Q190.55 153.36 190.55 149.41L190.55 149.41Q190.55 145.09 192.39 141.40Q194.22 137.70 197.44 135.35Q200.65 133.00 204.64 132.57L204.64 132.57Q205.67 122.09 208.56 114.66Q211.45 107.24 216.15 107.24L216.15 107.24Q218.47 107.24 220.01 109.35Q221.55 111.45 221.55 115.72L221.55 115.72Q221.55 121.77 218.58 129.87Q215.61 137.97 210.64 146.50L210.64 146.50Q210.85 149.63 211.58 150.98Q212.31 152.33 213.45 152.33L213.45 152.33Q214.90 152.33 216.42 151.03Q217.93 149.74 220.47 146.71L220.47 146.71Q221.11 145.96 221.92 145.96L221.92 145.96ZM215.55 112.53Q214.53 112.53 213.50 116.18Q212.47 119.82 211.75 125.71Q211.02 131.59 210.69 138.02L210.69 138.02Q216.74 124.84 216.74 116.85L216.74 116.85Q216.74 114.80 216.39 113.67Q216.04 112.53 215.55 112.53L215.55 112.53ZM200.00 152.82Q201.03 152.82 202.05 151.98Q203.08 151.14 204.64 148.87L204.64 148.87Q204.10 145.96 204.10 142.34L204.10 142.34Q204.10 141.04 204.21 138.13L204.21 138.13Q201.24 139.05 199.27 142.10Q197.30 145.15 197.30 148.87L197.30 148.87Q197.30 152.82 200.00 152.82L200.00 152.82ZM226.14 129.27Q223.87 129.27 222.73 128.22Q221.60 127.17 221.60 125.28L221.60 125.28Q221.60 123.39 223.09 122.12Q224.57 120.85 226.78 120.85L226.78 120.85Q228.78 120.85 230.02 121.82Q231.27 122.79 231.27 124.57L231.27 124.57Q231.27 126.73 229.86 128.00Q228.46 129.27 226.14 129.27L226.14 129.27ZM225.70 158.27Q222.19 158.27 220.60 155.79Q219.01 153.30 219.01 149.20L219.01 149.20Q219.01 146.77 219.63 142.96Q220.25 139.15 221.22 135.86L221.22 135.86Q221.71 134.13 222.52 133.48Q223.33 132.84 225.11 132.84L225.11 132.84Q227.86 132.84 227.86 134.67L227.86 134.67Q227.86 136.02 226.84 140.94L226.84 140.94Q225.54 146.88 225.54 148.98L225.54 148.98Q225.54 150.60 225.97 151.47Q226.41 152.33 227.43 152.33L227.43 152.33Q228.40 152.33 229.86 150.98Q231.32 149.63 233.75 146.71L233.75 146.71Q234.40 145.96 235.21 145.96L235.21 145.96Q235.91 145.96 236.32 146.61Q236.72 147.25 236.72 148.39L236.72 148.39Q236.72 150.55 235.69 151.74L235.69 151.74Q230.35 158.27 225.70 158.27L225.70 158.27ZM256.43 145.96Q257.13 145.96 257.54 146.61Q257.94 147.25 257.94 148.39L257.94 148.39Q257.94 150.55 256.92 151.74L256.92 151.74Q254.59 154.60 251.84 156.43Q249.09 158.27 245.52 158.27L245.52 158.27Q234.51 158.27 234.51 142.77L234.51 142.77Q234.51 140.40 234.67 137.97L234.67 137.97L232.56 137.97Q230.94 137.97 230.38 137.37Q229.81 136.78 229.81 135.48L229.81 135.48Q229.81 132.46 232.24 132.46L232.24 132.46L235.32 132.46Q236.23 126.52 238.12 121.60Q240.01 116.69 242.69 113.77Q245.36 110.86 248.44 110.86L248.44 110.86Q250.71 110.86 252.00 112.86Q253.30 114.85 253.30 117.88L253.30 117.88Q253.30 126.25 246.28 132.46L246.28 132.46L252.33 132.46Q253.19 132.46 253.57 132.84Q253.95 133.21 253.95 134.24L253.95 134.24Q253.95 137.97 247.84 137.97L247.84 137.97L241.26 137.97Q241.15 140.67 241.15 142.18L241.15 142.18Q241.15 147.79 242.47 150.06Q243.79 152.33 246.66 152.33L246.66 152.33Q248.98 152.33 250.76 150.93Q252.54 149.52 254.97 146.71L254.97 146.71Q255.62 145.96 256.43 145.96L256.43 145.96ZM246.98 116.04Q246.17 116.04 245.17 118.07Q244.17 120.09 243.28 123.68Q242.39 127.27 241.80 131.65L241.80 131.65Q244.98 128.89 246.58 125.47Q248.17 122.04 248.17 119.23L248.17 119.23Q248.17 116.04 246.98 116.04L246.98 116.04ZM240.77 174.63Q239.85 174.63 239.26 174.06Q238.66 173.50 238.72 172.42L238.72 172.42L239.04 165.29Q239.10 163.51 240.15 162.70Q241.20 161.89 242.61 161.89L242.61 161.89Q243.90 161.89 244.74 162.67Q245.58 163.45 245.58 164.91L245.58 164.91Q245.58 165.88 245.31 166.64L245.31 166.64L243.20 172.85Q242.61 174.63 240.77 174.63L240.77 174.63ZM277.65 145.96Q278.35 145.96 278.76 146.61Q279.16 147.25 279.16 148.39L279.16 148.39Q279.16 150.55 278.14 151.74L278.14 151.74Q276.14 154.17 272.50 156.22Q268.85 158.27 264.69 158.27L264.69 158.27Q259.02 158.27 255.89 155.19Q252.76 152.11 252.76 146.77L252.76 146.77Q252.76 143.04 254.32 139.83Q255.89 136.62 258.67 134.73Q261.45 132.84 264.96 132.84L264.96 132.84Q268.09 132.84 269.98 134.70Q271.87 136.56 271.87 139.75L271.87 139.75Q271.87 143.47 269.20 146.15Q266.53 148.82 260.16 150.39L260.16 150.39Q261.51 152.87 265.29 152.87L265.29 152.87Q267.72 152.87 270.82 151.17Q273.93 149.47 276.19 146.71L276.19 146.71Q276.84 145.96 277.65 145.96L277.65 145.96ZM264.04 138.13Q262.05 138.13 260.67 140.45Q259.29 142.77 259.29 146.07L259.29 146.07L259.29 146.17Q262.48 145.42 264.31 143.91Q266.15 142.39 266.15 140.40L266.15 140.40Q266.15 139.37 265.58 138.75Q265.02 138.13 264.04 138.13L264.04 138.13Z"></path>

  
  <path fill="#f060b2" d="M138.98 203.96Q139.68 203.96 140.09 204.61Q140.49 205.25 140.49 206.39L140.49 206.39Q140.49 208.49 139.47 209.74L139.47 209.74Q136.87 212.87 134.23 214.57Q131.58 216.27 127.96 216.27L127.96 216.27Q124.45 216.27 122.00 214.38Q119.54 212.49 117.33 207.90L117.33 207.90Q115.54 204.23 114.52 202.47Q113.49 200.72 112.49 199.96Q111.49 199.21 110.04 199.04L110.04 199.04Q109.82 200.18 108.79 206.17L108.79 206.17Q108.36 208.87 108.25 209.47L108.25 209.47Q107.71 212.76 106.09 214.51Q104.47 216.27 101.18 216.27L101.18 216.27Q97.56 216.27 94.78 214.14Q92 212.00 90.49 208.20Q88.98 204.39 88.98 199.53L88.98 199.53Q88.98 190.46 92.14 183.87Q95.29 177.28 100.99 173.80Q106.69 170.32 114.14 170.32L114.14 170.32Q119.32 170.32 122.83 171.88Q126.34 173.45 128.05 176.20Q129.75 178.96 129.75 182.41L129.75 182.41Q129.75 185.44 128.31 188.32Q126.88 191.21 124.02 193.43Q121.16 195.64 117.06 196.72L117.06 196.72Q119.65 197.42 121.05 198.99Q122.46 200.56 123.86 203.58L123.86 203.58Q125.37 206.82 126.86 208.33Q128.34 209.84 130.29 209.84L130.29 209.84Q132.01 209.84 133.58 208.68Q135.15 207.52 137.52 204.71L137.52 204.71Q138.17 203.96 138.98 203.96L138.98 203.96ZM101.13 207.09L102.58 198.99Q100.75 198.99 100.07 198.13Q99.40 197.26 99.40 196.18L99.40 196.18Q99.40 194.89 100.23 194.13Q101.07 193.37 102.15 193.37L102.15 193.37L103.50 193.37Q104.37 188.08 105.12 184.25L105.12 184.25Q105.82 180.74 109.66 180.74L109.66 180.74Q112.74 180.74 112.74 183.49L112.74 183.49Q112.74 184.09 112.68 184.41L112.68 184.41L111.06 193.37Q113.98 193.21 116.38 191.97Q118.78 190.73 120.22 188.51Q121.65 186.30 121.65 183.49L121.65 183.49Q121.65 180.09 119.32 178.15Q117.00 176.20 112.52 176.20L112.52 176.20Q107.23 176.20 103.26 178.82Q99.29 181.44 97.08 186.60Q94.86 191.75 94.86 199.15L94.86 199.15Q94.86 202.61 95.56 205.09Q96.27 207.58 97.29 208.82Q98.32 210.06 99.24 210.06L99.24 210.06Q99.94 210.06 100.40 209.36Q100.86 208.66 101.13 207.09L101.13 207.09ZM141.68 216.27Q138.33 216.27 136.33 213.84Q134.34 211.41 134.34 207.47L134.34 207.47Q134.34 203.15 136.33 199.29Q138.33 195.43 141.65 193.08Q144.97 190.73 148.70 190.73L148.70 190.73Q149.89 190.73 150.29 191.19Q150.70 191.65 150.97 192.83L150.97 192.83Q152.10 192.62 153.34 192.62L153.34 192.62Q155.99 192.62 155.99 194.51L155.99 194.51Q155.99 195.64 155.18 199.91L155.18 199.91Q153.94 206.12 153.94 208.55L153.94 208.55Q153.94 209.36 154.34 209.84Q154.75 210.33 155.40 210.33L155.40 210.33Q156.42 210.33 157.88 209.01Q159.34 207.68 161.82 204.71L161.82 204.71Q162.47 203.96 163.28 203.96L163.28 203.96Q163.98 203.96 164.39 204.61Q164.79 205.25 164.79 206.39L164.79 206.39Q164.79 208.55 163.77 209.74L163.77 209.74Q161.55 212.49 159.07 214.38Q156.58 216.27 154.26 216.27L154.26 216.27Q152.48 216.27 151.00 215.06Q149.51 213.84 148.75 211.73L148.75 211.73Q145.95 216.27 141.68 216.27L141.68 216.27ZM143.62 210.82Q144.81 210.82 145.89 209.41Q146.97 208.01 147.46 205.69L147.46 205.69L149.46 195.75Q147.19 195.80 145.27 197.45Q143.35 199.10 142.22 201.80Q141.09 204.50 141.09 207.52L141.09 207.52Q141.09 209.20 141.76 210.01Q142.44 210.82 143.62 210.82L143.62 210.82ZM149.46 187.27Q146.11 187.27 143.68 185.92Q141.25 184.57 140.01 182.47Q138.76 180.36 138.76 178.15L138.76 178.15Q138.76 176.80 139.63 175.99Q140.49 175.18 141.84 175.18L141.84 175.18Q144.00 175.18 144.60 177.34L144.60 177.34Q145.24 179.60 146.59 180.85Q147.94 182.09 149.89 182.09L149.89 182.09Q152.05 182.09 153.32 180.76Q154.59 179.44 155.67 177.17L155.67 177.17Q156.64 175.18 158.53 175.18L158.53 175.18Q159.72 175.18 160.34 175.85Q160.96 176.53 160.96 177.71L160.96 177.71Q160.96 179.82 159.58 182.03Q158.20 184.25 155.59 185.76Q152.97 187.27 149.46 187.27L149.46 187.27ZM170.46 217.46Q167.65 217.46 166.17 216.16Q164.68 214.87 164.68 213.25L164.68 213.25Q164.68 211.84 165.71 210.82Q166.74 209.79 168.73 209.79L168.73 209.79Q169.44 209.79 170.38 209.93Q171.33 210.06 171.81 210.11L171.81 210.11Q171.76 208.71 171.19 207.47Q170.62 206.23 169.76 205.06Q168.90 203.90 168.14 203.04L168.14 203.04Q166.47 206.23 164.82 208.33Q163.17 210.44 161.23 212.33L161.23 212.33Q160.26 213.30 159.18 213.30L159.18 213.30Q158.31 213.30 157.77 212.68Q157.23 212.06 157.23 211.14L157.23 211.14Q157.23 210.06 157.99 209.14L157.99 209.14L158.69 208.28Q161.66 204.61 163.17 202.23L163.17 202.23Q164.09 200.66 165.33 198.05Q166.57 195.43 167.76 192.62L167.76 192.62Q168.79 190.24 172.03 190.24L172.03 190.24Q173.54 190.24 174.13 190.51Q174.73 190.78 174.73 191.38L174.73 191.38Q174.73 191.70 174.51 192.40Q174.30 193.10 173.92 193.81L173.92 193.81Q172.95 195.75 172.95 197.10L172.95 197.10Q172.95 197.91 173.51 198.88Q174.08 199.85 175.27 201.31L175.27 201.31Q177.00 203.58 177.89 205.17Q178.78 206.77 178.78 208.66L178.78 208.66Q178.78 209.20 178.67 210.17L178.67 210.17Q181.32 209.14 184.88 204.71L184.88 204.71Q185.53 203.96 186.34 203.96L186.34 203.96Q187.04 203.96 187.44 204.61Q187.85 205.25 187.85 206.39L187.85 206.39Q187.85 208.44 186.82 209.74L186.82 209.74Q184.12 213.08 181.67 214.30Q179.21 215.51 175.59 215.62L175.59 215.62Q173.43 217.46 170.46 217.46L170.46 217.46ZM204.48 200.88Q205.99 200.88 205.99 203.15L205.99 203.15Q205.99 207.41 199.30 207.41L199.30 207.41Q198.00 207.41 195.57 206.93L195.57 206.93Q196.27 210.28 196.73 214.35Q197.19 218.43 197.19 221.08L197.19 221.08Q197.19 226.91 195.30 229.99Q193.41 233.06 190.33 233.06L190.33 233.06Q186.45 233.06 184.80 227.56Q183.15 222.05 183.15 210.92L183.15 210.92Q183.15 200.56 185.39 189.89Q187.63 179.23 191.55 172.23Q195.46 165.24 200.16 165.24L200.16 165.24Q202.70 165.24 204.13 167.51Q205.56 169.78 205.56 173.61L205.56 173.61Q205.56 186.30 190.39 201.26L190.39 201.26Q189.85 206.55 189.85 210.55L189.85 210.55Q189.85 216.11 190.23 221.97Q190.60 227.83 191.47 227.83L191.47 227.83Q193.09 227.83 193.09 222.21L193.09 222.21Q193.09 218.00 192.52 214.06Q191.95 210.11 190.98 205.74L190.98 205.74Q190.93 205.04 191.44 203.96Q191.95 202.88 192.71 202.07Q193.47 201.26 194.06 201.26L194.06 201.26Q195.14 201.26 196.65 201.37L196.65 201.37Q197.14 201.42 197.79 201.42L197.79 201.42Q199.95 201.42 202.59 201.04L202.59 201.04Q203.02 200.99 203.51 200.93Q204.00 200.88 204.48 200.88L204.48 200.88ZM199.03 170.59Q198.06 170.59 196.63 173.88Q195.19 177.17 193.79 182.60Q192.39 188.03 191.36 194.08L191.36 194.08Q195.68 189.16 198.00 183.84Q200.32 178.52 200.38 173.88L200.38 173.88Q200.38 170.59 199.03 170.59L199.03 170.59ZM208.80 216.27Q205.45 216.27 203.46 213.84Q201.46 211.41 201.46 207.47L201.46 207.47Q201.46 203.15 203.46 199.29Q205.45 195.43 208.77 193.08Q212.10 190.73 215.82 190.73L215.82 190.73Q217.01 190.73 217.41 191.19Q217.82 191.65 218.09 192.83L218.09 192.83Q219.22 192.62 220.47 192.62L220.47 192.62Q223.11 192.62 223.11 194.51L223.11 194.51Q223.11 195.64 222.30 199.91L222.30 199.91Q221.06 206.12 221.06 208.55L221.06 208.55Q221.06 209.36 221.46 209.84Q221.87 210.33 222.52 210.33L222.52 210.33Q223.54 210.33 225.00 209.01Q226.46 207.68 228.94 204.71L228.94 204.71Q229.59 203.96 230.40 203.96L230.40 203.96Q231.10 203.96 231.51 204.61Q231.91 205.25 231.91 206.39L231.91 206.39Q231.91 208.55 230.89 209.74L230.89 209.74Q228.67 212.49 226.19 214.38Q223.71 216.27 221.38 216.27L221.38 216.27Q219.60 216.27 218.12 215.06Q216.63 213.84 215.88 211.73L215.88 211.73Q213.07 216.27 208.80 216.27L208.80 216.27ZM210.75 210.82Q211.93 210.82 213.01 209.41Q214.09 208.01 214.58 205.69L214.58 205.69L216.58 195.75Q214.31 195.80 212.39 197.45Q210.48 199.10 209.34 201.80Q208.21 204.50 208.21 207.52L208.21 207.52Q208.21 209.20 208.88 210.01Q209.56 210.82 210.75 210.82L210.75 210.82ZM216.58 187.27Q213.23 187.27 210.80 185.92Q208.37 184.57 207.13 182.47Q205.89 180.36 205.89 178.15L205.89 178.15Q205.89 176.80 206.75 175.99Q207.61 175.18 208.96 175.18L208.96 175.18Q211.12 175.18 211.72 177.34L211.72 177.34Q212.37 179.60 213.72 180.85Q215.07 182.09 217.01 182.09L217.01 182.09Q219.17 182.09 220.44 180.76Q221.71 179.44 222.79 177.17L222.79 177.17Q223.76 175.18 225.65 175.18L225.65 175.18Q226.84 175.18 227.46 175.85Q228.08 176.53 228.08 177.71L228.08 177.71Q228.08 179.82 226.70 182.03Q225.33 184.25 222.71 185.76Q220.09 187.27 216.58 187.27L216.58 187.27ZM251.62 203.96Q252.33 203.96 252.73 204.61Q253.14 205.25 253.14 206.39L253.14 206.39Q253.14 208.55 252.11 209.74L252.11 209.74Q249.79 212.60 247.03 214.43Q244.28 216.27 240.72 216.27L240.72 216.27Q229.70 216.27 229.70 200.77L229.70 200.77Q229.70 198.40 229.86 195.97L229.86 195.97L227.76 195.97Q226.14 195.97 225.57 195.37Q225.00 194.78 225.00 193.48L225.00 193.48Q225.00 190.46 227.43 190.46L227.43 190.46L230.51 190.46Q231.43 184.52 233.32 179.60Q235.21 174.69 237.88 171.77Q240.55 168.86 243.63 168.86L243.63 168.86Q245.90 168.86 247.20 170.86Q248.49 172.85 248.49 175.88L248.49 175.88Q248.49 184.25 241.47 190.46L241.47 190.46L247.52 190.46Q248.38 190.46 248.76 190.84Q249.14 191.21 249.14 192.24L249.14 192.24Q249.14 195.97 243.04 195.97L243.04 195.97L236.45 195.97Q236.34 198.67 236.34 200.18L236.34 200.18Q236.34 205.79 237.66 208.06Q238.99 210.33 241.85 210.33L241.85 210.33Q244.17 210.33 245.95 208.93Q247.74 207.52 250.17 204.71L250.17 204.71Q250.81 203.96 251.62 203.96L251.62 203.96ZM242.17 174.04Q241.36 174.04 240.36 176.07Q239.37 178.09 238.47 181.68Q237.58 185.27 236.99 189.65L236.99 189.65Q240.18 186.89 241.77 183.47Q243.36 180.04 243.36 177.23L243.36 177.23Q243.36 174.04 242.17 174.04L242.17 174.04ZM235.96 232.63Q235.05 232.63 234.45 232.06Q233.86 231.50 233.91 230.42L233.91 230.42L234.24 223.29Q234.29 221.51 235.34 220.70Q236.40 219.89 237.80 219.89L237.80 219.89Q239.10 219.89 239.93 220.67Q240.77 221.45 240.77 222.91L240.77 222.91Q240.77 223.88 240.50 224.64L240.50 224.64L238.39 230.85Q237.80 232.63 235.96 232.63L235.96 232.63ZM255.40 216.27Q252.06 216.27 250.06 213.84Q248.06 211.41 248.06 207.47L248.06 207.47Q248.06 203.15 250.06 199.29Q252.06 195.43 255.38 193.08Q258.70 190.73 262.42 190.73L262.42 190.73Q263.61 190.73 264.02 191.19Q264.42 191.65 264.69 192.83L264.69 192.83Q265.83 192.62 267.07 192.62L267.07 192.62Q269.71 192.62 269.71 194.51L269.71 194.51Q269.71 195.64 268.90 199.91L268.90 199.91Q267.66 206.12 267.66 208.55L267.66 208.55Q267.66 209.36 268.07 209.84Q268.47 210.33 269.12 210.33L269.12 210.33Q270.15 210.33 271.60 209.01Q273.06 207.68 275.55 204.71L275.55 204.71Q276.19 203.96 277.00 203.96L277.00 203.96Q277.71 203.96 278.11 204.61Q278.52 205.25 278.52 206.39L278.52 206.39Q278.52 208.55 277.49 209.74L277.49 209.74Q275.28 212.49 272.79 214.38Q270.31 216.27 267.99 216.27L267.99 216.27Q266.20 216.27 264.72 215.06Q263.23 213.84 262.48 211.73L262.48 211.73Q259.67 216.27 255.40 216.27L255.40 216.27ZM257.35 210.82Q258.54 210.82 259.62 209.41Q260.70 208.01 261.18 205.69L261.18 205.69L263.18 195.75Q260.91 195.80 259.00 197.45Q257.08 199.10 255.94 201.80Q254.81 204.50 254.81 207.52L254.81 207.52Q254.81 209.20 255.48 210.01Q256.16 210.82 257.35 210.82L257.35 210.82ZM298.23 203.96Q298.93 203.96 299.33 204.61Q299.74 205.25 299.74 206.39L299.74 206.39Q299.74 208.55 298.71 209.74L298.71 209.74Q296.39 212.60 293.64 214.43Q290.88 216.27 287.32 216.27L287.32 216.27Q276.30 216.27 276.30 200.77L276.30 200.77Q276.30 198.40 276.46 195.97L276.46 195.97L274.36 195.97Q272.74 195.97 272.17 195.37Q271.60 194.78 271.60 193.48L271.60 193.48Q271.60 190.46 274.03 190.46L274.03 190.46L277.11 190.46Q278.03 184.52 279.92 179.60Q281.81 174.69 284.48 171.77Q287.16 168.86 290.23 168.86L290.23 168.86Q292.50 168.86 293.80 170.86Q295.09 172.85 295.09 175.88L295.09 175.88Q295.09 184.25 288.07 190.46L288.07 190.46L294.12 190.46Q294.99 190.46 295.36 190.84Q295.74 191.21 295.74 192.24L295.74 192.24Q295.74 195.97 289.64 195.97L289.64 195.97L283.05 195.97Q282.94 198.67 282.94 200.18L282.94 200.18Q282.94 205.79 284.27 208.06Q285.59 210.33 288.45 210.33L288.45 210.33Q290.77 210.33 292.56 208.93Q294.34 207.52 296.77 204.71L296.77 204.71Q297.42 203.96 298.23 203.96L298.23 203.96ZM288.78 174.04Q287.97 174.04 286.97 176.07Q285.97 178.09 285.08 181.68Q284.19 185.27 283.59 189.65L283.59 189.65Q286.78 186.89 288.37 183.47Q289.96 180.04 289.96 177.23L289.96 177.23Q289.96 174.04 288.78 174.04L288.78 174.04ZM319.45 203.96Q320.15 203.96 320.56 204.61Q320.96 205.25 320.96 206.39L320.96 206.39Q320.96 208.55 319.93 209.74L319.93 209.74Q317.94 212.17 314.29 214.22Q310.65 216.27 306.49 216.27L306.49 216.27Q300.82 216.27 297.69 213.19Q294.55 210.11 294.55 204.77L294.55 204.77Q294.55 201.04 296.12 197.83Q297.69 194.62 300.47 192.73Q303.25 190.84 306.76 190.84L306.76 190.84Q309.89 190.84 311.78 192.70Q313.67 194.56 313.67 197.75L313.67 197.75Q313.67 201.47 311.00 204.15Q308.32 206.82 301.95 208.39L301.95 208.39Q303.30 210.87 307.08 210.87L307.08 210.87Q309.51 210.87 312.62 209.17Q315.72 207.47 317.99 204.71L317.99 204.71Q318.64 203.96 319.45 203.96L319.45 203.96ZM305.84 196.13Q303.84 196.13 302.46 198.45Q301.09 200.77 301.09 204.07L301.09 204.07L301.09 204.17Q304.27 203.42 306.11 201.91Q307.95 200.39 307.95 198.40L307.95 198.40Q307.95 197.37 307.38 196.75Q306.81 196.13 305.84 196.13L305.84 196.13Z"></path>

</svg>